<?xml version="1.0" encoding="UTF-8" standalone="no"?>
<!DOCTYPE svg PUBLIC "-//W3C//DTD SVG 1.1//EN"
 "http://www.w3.org/Graphics/SVG/1.1/DTD/svg11.dtd">
<!-- Generated by graphviz version 2.36.0 (20140111.2315)
 -->
<!-- Title: controllers_diagram Pages: 1 -->
<svg width="391pt" height="421pt"
 viewBox="0.00 0.00 391.38 421.00" xmlns="http://www.w3.org/2000/svg" xmlns:xlink="http://www.w3.org/1999/xlink">
<g id="graph0" class="graph" transform="scale(1 1) rotate(0) translate(4 417)">
<title>controllers_diagram</title>
<polygon fill="none" stroke="none" points="-4,4 -4,-417 387.375,-417 387.375,4 -4,4"/>
<!-- _diagram_info -->
<g id="node1" class="node"><title>_diagram_info</title>
<text text-anchor="start" x="184" y="-58.6" font-family="Times,serif" font-size="13.00">Controllers diagram</text>
<text text-anchor="start" x="184" y="-45.6" font-family="Times,serif" font-size="13.00">Date: Feb 14 2016 &#45; 15:08</text>
<text text-anchor="start" x="184" y="-32.6" font-family="Times,serif" font-size="13.00">Migration version: 20160214121439</text>
<text text-anchor="start" x="184" y="-19.6" font-family="Times,serif" font-size="13.00">Generated by RailRoady 1.4.2</text>
<text text-anchor="start" x="184" y="-6.6" font-family="Times,serif" font-size="13.00">http://railroady.prestonlee.com</text>
</g>
<!-- ApplicationController -->
<g id="node2" class="node"><title>ApplicationController</title>
<path fill="none" stroke="black" d="M12,-320.5C12,-320.5 127.642,-320.5 127.642,-320.5 133.642,-320.5 139.642,-326.5 139.642,-332.5 139.642,-332.5 139.642,-400.5 139.642,-400.5 139.642,-406.5 133.642,-412.5 127.642,-412.5 127.642,-412.5 12,-412.5 12,-412.5 6,-412.5 0,-406.5 0,-400.5 0,-400.5 0,-332.5 0,-332.5 0,-326.5 6,-320.5 12,-320.5"/>
<text text-anchor="middle" x="69.8208" y="-397.3" font-family="Times,serif" font-size="14.00">ApplicationController</text>
<polyline fill="none" stroke="black" points="0,-390.5 139.642,-390.5 "/>
<polyline fill="none" stroke="black" points="0,-366.5 139.642,-366.5 "/>
<polyline fill="none" stroke="black" points="0,-342.5 139.642,-342.5 "/>
<text text-anchor="start" x="8" y="-327.3" font-family="Times,serif" font-size="14.00">_layout</text>
</g>
<!-- RunsController -->
<g id="node3" class="node"><title>RunsController</title>
<path fill="none" stroke="black" d="M60,-64.5C60,-64.5 138.331,-64.5 138.331,-64.5 144.331,-64.5 150.331,-70.5 150.331,-76.5 150.331,-76.5 150.331,-268.5 150.331,-268.5 150.331,-274.5 144.331,-280.5 138.331,-280.5 138.331,-280.5 60,-280.5 60,-280.5 54,-280.5 48,-274.5 48,-268.5 48,-268.5 48,-76.5 48,-76.5 48,-70.5 54,-64.5 60,-64.5"/>
<text text-anchor="middle" x="99.1655" y="-265.3" font-family="Times,serif" font-size="14.00">RunsController</text>
<polyline fill="none" stroke="black" points="48,-258.5 150.331,-258.5 "/>
<text text-anchor="start" x="56" y="-243.3" font-family="Times,serif" font-size="14.00">compact</text>
<text text-anchor="start" x="56" y="-229.3" font-family="Times,serif" font-size="14.00">create</text>
<text text-anchor="start" x="56" y="-215.3" font-family="Times,serif" font-size="14.00">destroy</text>
<text text-anchor="start" x="56" y="-201.3" font-family="Times,serif" font-size="14.00">edit</text>
<text text-anchor="start" x="56" y="-187.3" font-family="Times,serif" font-size="14.00">index</text>
<text text-anchor="start" x="56" y="-173.3" font-family="Times,serif" font-size="14.00">new</text>
<text text-anchor="start" x="56" y="-159.3" font-family="Times,serif" font-size="14.00">show</text>
<text text-anchor="start" x="56" y="-145.3" font-family="Times,serif" font-size="14.00">update</text>
<polyline fill="none" stroke="black" points="48,-138.5 150.331,-138.5 "/>
<polyline fill="none" stroke="black" points="48,-114.5 150.331,-114.5 "/>
<text text-anchor="start" x="56" y="-99.3" font-family="Times,serif" font-size="14.00">_layout</text>
<text text-anchor="start" x="56" y="-85.3" font-family="Times,serif" font-size="14.00">run_params</text>
<text text-anchor="start" x="56" y="-71.3" font-family="Times,serif" font-size="14.00">set_run</text>
</g>
<!-- TracksController -->
<g id="node4" class="node"><title>TracksController</title>
<path fill="none" stroke="black" d="M188,-112.5C188,-112.5 275.149,-112.5 275.149,-112.5 281.149,-112.5 287.149,-118.5 287.149,-124.5 287.149,-124.5 287.149,-302.5 287.149,-302.5 287.149,-308.5 281.149,-314.5 275.149,-314.5 275.149,-314.5 188,-314.5 188,-314.5 182,-314.5 176,-308.5 176,-302.5 176,-302.5 176,-124.5 176,-124.5 176,-118.5 182,-112.5 188,-112.5"/>
<text text-anchor="middle" x="231.575" y="-299.3" font-family="Times,serif" font-size="14.00">TracksController</text>
<polyline fill="none" stroke="black" points="176,-292.5 287.149,-292.5 "/>
<text text-anchor="start" x="184" y="-277.3" font-family="Times,serif" font-size="14.00">create</text>
<text text-anchor="start" x="184" y="-263.3" font-family="Times,serif" font-size="14.00">destroy</text>
<text text-anchor="start" x="184" y="-249.3" font-family="Times,serif" font-size="14.00">edit</text>
<text text-anchor="start" x="184" y="-235.3" font-family="Times,serif" font-size="14.00">index</text>
<text text-anchor="start" x="184" y="-221.3" font-family="Times,serif" font-size="14.00">new</text>
<text text-anchor="start" x="184" y="-207.3" font-family="Times,serif" font-size="14.00">show</text>
<text text-anchor="start" x="184" y="-193.3" font-family="Times,serif" font-size="14.00">update</text>
<polyline fill="none" stroke="black" points="176,-186.5 287.149,-186.5 "/>
<polyline fill="none" stroke="black" points="176,-162.5 287.149,-162.5 "/>
<text text-anchor="start" x="184" y="-147.3" font-family="Times,serif" font-size="14.00">_layout</text>
<text text-anchor="start" x="184" y="-133.3" font-family="Times,serif" font-size="14.00">set_track</text>
<text text-anchor="start" x="184" y="-119.3" font-family="Times,serif" font-size="14.00">track_params</text>
</g>
</g>
</svg>
