<?xml version="1.0" encoding="UTF-8" standalone="no"?>
<!DOCTYPE svg PUBLIC "-//W3C//DTD SVG 1.1//EN"
 "http://www.w3.org/Graphics/SVG/1.1/DTD/svg11.dtd">
<!-- Generated by graphviz version 2.36.0 (20140111.2315)
 -->
<!-- Title: controllers_diagram Pages: 1 -->
<svg width="455pt" height="433pt"
 viewBox="0.00 0.00 455.38 433.00" xmlns="http://www.w3.org/2000/svg" xmlns:xlink="http://www.w3.org/1999/xlink">
<g id="graph0" class="graph" transform="scale(1 1) rotate(0) translate(4 429)">
<title>controllers_diagram</title>
<polygon fill="none" stroke="none" points="-4,4 -4,-429 451.375,-429 451.375,4 -4,4"/>
<!-- _diagram_info -->
<g id="node1" class="node"><title>_diagram_info</title>
<text text-anchor="start" x="248" y="-410.6" font-family="Times,serif" font-size="13.00">Controllers diagram</text>
<text text-anchor="start" x="248" y="-397.6" font-family="Times,serif" font-size="13.00">Date: Jul 24 2016 &#45; 11:19</text>
<text text-anchor="start" x="248" y="-384.6" font-family="Times,serif" font-size="13.00">Migration version: 20160330104124</text>
<text text-anchor="start" x="248" y="-371.6" font-family="Times,serif" font-size="13.00">Generated by RailRoady 1.4.2</text>
<text text-anchor="start" x="248" y="-358.6" font-family="Times,serif" font-size="13.00">http://railroady.prestonlee.com</text>
</g>
<!-- ActivityController -->
<g id="node2" class="node"><title>ActivityController</title>
<path fill="none" stroke="black" d="M12,-320.5C12,-320.5 107.428,-320.5 107.428,-320.5 113.428,-320.5 119.428,-326.5 119.428,-332.5 119.428,-332.5 119.428,-412.5 119.428,-412.5 119.428,-418.5 113.428,-424.5 107.428,-424.5 107.428,-424.5 12,-424.5 12,-424.5 6,-424.5 0,-418.5 0,-412.5 0,-412.5 0,-332.5 0,-332.5 0,-326.5 6,-320.5 12,-320.5"/>
<text text-anchor="middle" x="59.7139" y="-409.3" font-family="Times,serif" font-size="14.00">ActivityController</text>
<polyline fill="none" stroke="black" points="0,-402.5 119.428,-402.5 "/>
<text text-anchor="start" x="8" y="-387.3" font-family="Times,serif" font-size="14.00">add</text>
<text text-anchor="start" x="8" y="-373.3" font-family="Times,serif" font-size="14.00">index</text>
<polyline fill="none" stroke="black" points="0,-366.5 119.428,-366.5 "/>
<polyline fill="none" stroke="black" points="0,-342.5 119.428,-342.5 "/>
<text text-anchor="start" x="8" y="-327.3" font-family="Times,serif" font-size="14.00">_layout</text>
</g>
<!-- ApplicationController -->
<g id="node3" class="node"><title>ApplicationController</title>
<path fill="none" stroke="black" d="M156,-0.5C156,-0.5 271.642,-0.5 271.642,-0.5 277.642,-0.5 283.642,-6.5 283.642,-12.5 283.642,-12.5 283.642,-80.5 283.642,-80.5 283.642,-86.5 277.642,-92.5 271.642,-92.5 271.642,-92.5 156,-92.5 156,-92.5 150,-92.5 144,-86.5 144,-80.5 144,-80.5 144,-12.5 144,-12.5 144,-6.5 150,-0.5 156,-0.5"/>
<text text-anchor="middle" x="213.821" y="-77.3" font-family="Times,serif" font-size="14.00">ApplicationController</text>
<polyline fill="none" stroke="black" points="144,-70.5 283.642,-70.5 "/>
<polyline fill="none" stroke="black" points="144,-46.5 283.642,-46.5 "/>
<polyline fill="none" stroke="black" points="144,-22.5 283.642,-22.5 "/>
<text text-anchor="start" x="152" y="-7.3" font-family="Times,serif" font-size="14.00">_layout</text>
</g>
<!-- RunsController -->
<g id="node4" class="node"><title>RunsController</title>
<path fill="none" stroke="black" d="M28,-64.5C28,-64.5 106.331,-64.5 106.331,-64.5 112.331,-64.5 118.331,-70.5 118.331,-76.5 118.331,-76.5 118.331,-282.5 118.331,-282.5 118.331,-288.5 112.331,-294.5 106.331,-294.5 106.331,-294.5 28,-294.5 28,-294.5 22,-294.5 16,-288.5 16,-282.5 16,-282.5 16,-76.5 16,-76.5 16,-70.5 22,-64.5 28,-64.5"/>
<text text-anchor="middle" x="67.1655" y="-279.3" font-family="Times,serif" font-size="14.00">RunsController</text>
<polyline fill="none" stroke="black" points="16,-272.5 118.331,-272.5 "/>
<text text-anchor="start" x="24" y="-257.3" font-family="Times,serif" font-size="14.00">compact</text>
<text text-anchor="start" x="24" y="-243.3" font-family="Times,serif" font-size="14.00">create</text>
<text text-anchor="start" x="24" y="-229.3" font-family="Times,serif" font-size="14.00">destroy</text>
<text text-anchor="start" x="24" y="-215.3" font-family="Times,serif" font-size="14.00">edit</text>
<text text-anchor="start" x="24" y="-201.3" font-family="Times,serif" font-size="14.00">index</text>
<text text-anchor="start" x="24" y="-187.3" font-family="Times,serif" font-size="14.00">new</text>
<text text-anchor="start" x="24" y="-173.3" font-family="Times,serif" font-size="14.00">show</text>
<text text-anchor="start" x="24" y="-159.3" font-family="Times,serif" font-size="14.00">stats</text>
<text text-anchor="start" x="24" y="-145.3" font-family="Times,serif" font-size="14.00">update</text>
<polyline fill="none" stroke="black" points="16,-138.5 118.331,-138.5 "/>
<polyline fill="none" stroke="black" points="16,-114.5 118.331,-114.5 "/>
<text text-anchor="start" x="24" y="-99.3" font-family="Times,serif" font-size="14.00">_layout</text>
<text text-anchor="start" x="24" y="-85.3" font-family="Times,serif" font-size="14.00">run_params</text>
<text text-anchor="start" x="24" y="-71.3" font-family="Times,serif" font-size="14.00">set_run</text>
</g>
<!-- TracksController -->
<g id="node5" class="node"><title>TracksController</title>
<path fill="none" stroke="black" d="M156,-128.5C156,-128.5 243.149,-128.5 243.149,-128.5 249.149,-128.5 255.149,-134.5 255.149,-140.5 255.149,-140.5 255.149,-304.5 255.149,-304.5 255.149,-310.5 249.149,-316.5 243.149,-316.5 243.149,-316.5 156,-316.5 156,-316.5 150,-316.5 144,-310.5 144,-304.5 144,-304.5 144,-140.5 144,-140.5 144,-134.5 150,-128.5 156,-128.5"/>
<text text-anchor="middle" x="199.575" y="-301.3" font-family="Times,serif" font-size="14.00">TracksController</text>
<polyline fill="none" stroke="black" points="144,-294.5 255.149,-294.5 "/>
<text text-anchor="start" x="152" y="-279.3" font-family="Times,serif" font-size="14.00">create</text>
<text text-anchor="start" x="152" y="-265.3" font-family="Times,serif" font-size="14.00">destroy</text>
<text text-anchor="start" x="152" y="-251.3" font-family="Times,serif" font-size="14.00">edit</text>
<text text-anchor="start" x="152" y="-237.3" font-family="Times,serif" font-size="14.00">index</text>
<text text-anchor="start" x="152" y="-223.3" font-family="Times,serif" font-size="14.00">new</text>
<text text-anchor="start" x="152" y="-209.3" font-family="Times,serif" font-size="14.00">update</text>
<polyline fill="none" stroke="black" points="144,-202.5 255.149,-202.5 "/>
<polyline fill="none" stroke="black" points="144,-178.5 255.149,-178.5 "/>
<text text-anchor="start" x="152" y="-163.3" font-family="Times,serif" font-size="14.00">_layout</text>
<text text-anchor="start" x="152" y="-149.3" font-family="Times,serif" font-size="14.00">set_track</text>
<text text-anchor="start" x="152" y="-135.3" font-family="Times,serif" font-size="14.00">track_params</text>
</g>
</g>
</svg>
