<?xml version="1.0" encoding="UTF-8" standalone="no"?>
<!DOCTYPE svg PUBLIC "-//W3C//DTD SVG 1.1//EN"
 "http://www.w3.org/Graphics/SVG/1.1/DTD/svg11.dtd">
<!-- Generated by graphviz version 2.36.0 (20140111.2315)
 -->
<!-- Title: models_diagram Pages: 1 -->
<svg width="544pt" height="526pt"
 viewBox="0.00 0.00 544.00 526.00" xmlns="http://www.w3.org/2000/svg" xmlns:xlink="http://www.w3.org/1999/xlink">
<g id="graph0" class="graph" transform="scale(1 1) rotate(0) translate(4 522)">
<title>models_diagram</title>
<polygon fill="none" stroke="none" points="-4,4 -4,-522 540,-522 540,4 -4,4"/>
<!-- _diagram_info -->
<g id="node1" class="node"><title>_diagram_info</title>
<text text-anchor="start" x="7.31226" y="-454.1" font-family="Times,serif" font-size="13.00">Models diagram</text>
<text text-anchor="start" x="7.31226" y="-441.1" font-family="Times,serif" font-size="13.00">Date: Feb 14 2016 &#45; 15:08</text>
<text text-anchor="start" x="7.31226" y="-428.1" font-family="Times,serif" font-size="13.00">Migration version: 20160214121439</text>
<text text-anchor="start" x="7.31226" y="-415.1" font-family="Times,serif" font-size="13.00">Generated by RailRoady 1.4.2</text>
<text text-anchor="start" x="7.31226" y="-402.1" font-family="Times,serif" font-size="13.00">http://railroady.prestonlee.com</text>
</g>
<!-- Region -->
<g id="node2" class="node"><title>Region</title>
<path fill="none" stroke="black" d="M236.495,-389C236.495,-389 345.505,-389 345.505,-389 351.505,-389 357.505,-395 357.505,-401 357.505,-401 357.505,-463 357.505,-463 357.505,-469 351.505,-475 345.505,-475 345.505,-475 236.495,-475 236.495,-475 230.495,-475 224.495,-469 224.495,-463 224.495,-463 224.495,-401 224.495,-401 224.495,-395 230.495,-389 236.495,-389"/>
<text text-anchor="middle" x="291" y="-459.8" font-family="Times,serif" font-size="14.00">Region</text>
<polyline fill="none" stroke="black" points="224.495,-453 357.505,-453 "/>
<text text-anchor="start" x="232.495" y="-437.8" font-family="Times,serif" font-size="14.00">id :INTEGER</text>
<text text-anchor="start" x="232.495" y="-423.8" font-family="Times,serif" font-size="14.00">name :varchar(255)</text>
<text text-anchor="start" x="232.495" y="-409.8" font-family="Times,serif" font-size="14.00">created_at :datetime</text>
<text text-anchor="start" x="232.495" y="-395.8" font-family="Times,serif" font-size="14.00">updated_at :datetime</text>
</g>
<!-- StartingPoint -->
<g id="node4" class="node"><title>StartingPoint</title>
<path fill="none" stroke="black" d="M228.719,-195C228.719,-195 353.281,-195 353.281,-195 359.281,-195 365.281,-201 365.281,-207 365.281,-207 365.281,-297 365.281,-297 365.281,-303 359.281,-309 353.281,-309 353.281,-309 228.719,-309 228.719,-309 222.719,-309 216.719,-303 216.719,-297 216.719,-297 216.719,-207 216.719,-207 216.719,-201 222.719,-195 228.719,-195"/>
<text text-anchor="middle" x="291" y="-293.8" font-family="Times,serif" font-size="14.00">StartingPoint</text>
<polyline fill="none" stroke="black" points="216.719,-287 365.281,-287 "/>
<text text-anchor="start" x="224.719" y="-271.8" font-family="Times,serif" font-size="14.00">id :INTEGER</text>
<text text-anchor="start" x="224.719" y="-257.8" font-family="Times,serif" font-size="14.00">region_id :integer</text>
<text text-anchor="start" x="224.719" y="-243.8" font-family="Times,serif" font-size="14.00">name :varchar(255)</text>
<text text-anchor="start" x="224.719" y="-229.8" font-family="Times,serif" font-size="14.00">map_link :varchar(255)</text>
<text text-anchor="start" x="224.719" y="-215.8" font-family="Times,serif" font-size="14.00">created_at :datetime</text>
<text text-anchor="start" x="224.719" y="-201.8" font-family="Times,serif" font-size="14.00">updated_at :datetime</text>
</g>
<!-- Region&#45;&gt;StartingPoint -->
<g id="edge1" class="edge"><title>Region&#45;&gt;StartingPoint</title>
<path fill="none" stroke="#348249" d="M291,-380.779C291,-361.658 291,-339.569 291,-319.19"/>
<ellipse fill="none" stroke="#348249" cx="291" cy="-384.816" rx="4" ry="4"/>
<polygon fill="#348249" stroke="#348249" points="291,-319.03 295.5,-309.03 291,-314.03 291,-309.03 291,-309.03 291,-309.03 291,-314.03 286.5,-309.03 291,-319.03 291,-319.03"/>
</g>
<!-- Run -->
<g id="node3" class="node"><title>Run</title>
<path fill="none" stroke="black" d="M387.505,-347C387.505,-347 524.495,-347 524.495,-347 530.495,-347 536.495,-353 536.495,-359 536.495,-359 536.495,-505 536.495,-505 536.495,-511 530.495,-517 524.495,-517 524.495,-517 387.505,-517 387.505,-517 381.505,-517 375.505,-511 375.505,-505 375.505,-505 375.505,-359 375.505,-359 375.505,-353 381.505,-347 387.505,-347"/>
<text text-anchor="middle" x="456" y="-501.8" font-family="Times,serif" font-size="14.00">Run</text>
<polyline fill="none" stroke="black" points="375.505,-495 536.495,-495 "/>
<text text-anchor="start" x="383.505" y="-479.8" font-family="Times,serif" font-size="14.00">id :INTEGER</text>
<text text-anchor="start" x="383.505" y="-465.8" font-family="Times,serif" font-size="14.00">date :date</text>
<text text-anchor="start" x="383.505" y="-451.8" font-family="Times,serif" font-size="14.00">participants :varchar(255)</text>
<text text-anchor="start" x="383.505" y="-437.8" font-family="Times,serif" font-size="14.00">km :decimal(5,1)</text>
<text text-anchor="start" x="383.505" y="-423.8" font-family="Times,serif" font-size="14.00">duration :integer</text>
<text text-anchor="start" x="383.505" y="-409.8" font-family="Times,serif" font-size="14.00">max_pulse :integer</text>
<text text-anchor="start" x="383.505" y="-395.8" font-family="Times,serif" font-size="14.00">comments :text</text>
<text text-anchor="start" x="383.505" y="-381.8" font-family="Times,serif" font-size="14.00">map_link :varchar(255)</text>
<text text-anchor="start" x="383.505" y="-367.8" font-family="Times,serif" font-size="14.00">created_at :datetime</text>
<text text-anchor="start" x="383.505" y="-353.8" font-family="Times,serif" font-size="14.00">updated_at :datetime</text>
</g>
<!-- Track -->
<g id="node5" class="node"><title>Track</title>
<path fill="none" stroke="black" d="M224.04,-1C224.04,-1 357.96,-1 357.96,-1 363.96,-1 369.96,-7 369.96,-13 369.96,-13 369.96,-145 369.96,-145 369.96,-151 363.96,-157 357.96,-157 357.96,-157 224.04,-157 224.04,-157 218.04,-157 212.04,-151 212.04,-145 212.04,-145 212.04,-13 212.04,-13 212.04,-7 218.04,-1 224.04,-1"/>
<text text-anchor="middle" x="291" y="-141.8" font-family="Times,serif" font-size="14.00">Track</text>
<polyline fill="none" stroke="black" points="212.04,-135 369.96,-135 "/>
<text text-anchor="start" x="220.04" y="-119.8" font-family="Times,serif" font-size="14.00">id :INTEGER</text>
<text text-anchor="start" x="220.04" y="-105.8" font-family="Times,serif" font-size="14.00">starting_point_id :integer</text>
<text text-anchor="start" x="220.04" y="-91.8" font-family="Times,serif" font-size="14.00">name :varchar(255)</text>
<text text-anchor="start" x="220.04" y="-77.8" font-family="Times,serif" font-size="14.00">night_track :boolean</text>
<text text-anchor="start" x="220.04" y="-63.8" font-family="Times,serif" font-size="14.00">map_link :varchar(255)</text>
<text text-anchor="start" x="220.04" y="-49.8" font-family="Times,serif" font-size="14.00">km :decimal(5,1)</text>
<text text-anchor="start" x="220.04" y="-35.8" font-family="Times,serif" font-size="14.00">comments :text</text>
<text text-anchor="start" x="220.04" y="-21.8" font-family="Times,serif" font-size="14.00">created_at :datetime</text>
<text text-anchor="start" x="220.04" y="-7.8" font-family="Times,serif" font-size="14.00">updated_at :datetime</text>
</g>
<!-- StartingPoint&#45;&gt;Track -->
<g id="edge2" class="edge"><title>StartingPoint&#45;&gt;Track</title>
<path fill="none" stroke="#657ebf" d="M291,-186.282C291,-180.039 291,-173.639 291,-167.226"/>
<ellipse fill="none" stroke="#657ebf" cx="291" cy="-190.534" rx="4" ry="4"/>
<polygon fill="#657ebf" stroke="#657ebf" points="291,-167.159 295.5,-157.159 291,-162.159 291,-157.159 291,-157.159 291,-157.159 291,-162.159 286.5,-157.159 291,-167.159 291,-167.159"/>
</g>
</g>
</svg>
