<?xml version="1.0" encoding="UTF-8" standalone="no"?>
<!DOCTYPE svg PUBLIC "-//W3C//DTD SVG 1.1//EN"
 "http://www.w3.org/Graphics/SVG/1.1/DTD/svg11.dtd">
<!-- Generated by graphviz version 2.36.0 (20140111.2315)
 -->
<!-- Title: models_diagram Pages: 1 -->
<svg width="376pt" height="226pt"
 viewBox="0.00 0.00 376.00 226.00" xmlns="http://www.w3.org/2000/svg" xmlns:xlink="http://www.w3.org/1999/xlink">
<g id="graph0" class="graph" transform="scale(1 1) rotate(0) translate(4 222)">
<title>models_diagram</title>
<polygon fill="none" stroke="none" points="-4,4 -4,-222 372,-222 372,4 -4,4"/>
<!-- _diagram_info -->
<g id="node1" class="node"><title>_diagram_info</title>
<text text-anchor="start" x="7.31226" y="-203.1" font-family="Times,serif" font-size="13.00">Models diagram</text>
<text text-anchor="start" x="7.31226" y="-190.1" font-family="Times,serif" font-size="13.00">Date: Feb 14 2016 &#45; 15:08</text>
<text text-anchor="start" x="7.31226" y="-177.1" font-family="Times,serif" font-size="13.00">Migration version: 20160214121439</text>
<text text-anchor="start" x="7.31226" y="-164.1" font-family="Times,serif" font-size="13.00">Generated by RailRoady 1.4.2</text>
<text text-anchor="start" x="7.31226" y="-151.1" font-family="Times,serif" font-size="13.00">http://railroady.prestonlee.com</text>
</g>
<!-- Region -->
<g id="node2" class="node"><title>Region</title>
<ellipse fill="none" stroke="black" cx="260" cy="-181" rx="35.4783" ry="18"/>
<text text-anchor="middle" x="260" y="-176.8" font-family="Times,serif" font-size="14.00">Region</text>
</g>
<!-- StartingPoint -->
<g id="node4" class="node"><title>StartingPoint</title>
<ellipse fill="none" stroke="black" cx="260" cy="-90" rx="56.1805" ry="18"/>
<text text-anchor="middle" x="260" y="-85.8" font-family="Times,serif" font-size="14.00">StartingPoint</text>
</g>
<!-- Region&#45;&gt;StartingPoint -->
<g id="edge1" class="edge"><title>Region&#45;&gt;StartingPoint</title>
<path fill="none" stroke="#6648d0" d="M260,-154.546C260,-143.148 260,-129.696 260,-118.11"/>
<ellipse fill="none" stroke="#6648d0" cx="260" cy="-158.84" rx="4" ry="4"/>
<polygon fill="#6648d0" stroke="#6648d0" points="260,-118.107 264.5,-108.107 260,-113.107 260,-108.107 260,-108.107 260,-108.107 260,-113.107 255.5,-108.107 260,-118.107 260,-118.107"/>
</g>
<!-- Run -->
<g id="node3" class="node"><title>Run</title>
<ellipse fill="none" stroke="black" cx="341" cy="-181" rx="27" ry="18"/>
<text text-anchor="middle" x="341" y="-176.8" font-family="Times,serif" font-size="14.00">Run</text>
</g>
<!-- Track -->
<g id="node5" class="node"><title>Track</title>
<ellipse fill="none" stroke="black" cx="260" cy="-18" rx="30.1295" ry="18"/>
<text text-anchor="middle" x="260" y="-13.8" font-family="Times,serif" font-size="14.00">Track</text>
</g>
<!-- StartingPoint&#45;&gt;Track -->
<g id="edge2" class="edge"><title>StartingPoint&#45;&gt;Track</title>
<path fill="none" stroke="#5a0bf9" d="M260,-63.6398C260,-58.0629 260,-52.1319 260,-46.4761"/>
<ellipse fill="none" stroke="#5a0bf9" cx="260" cy="-67.6966" rx="4" ry="4"/>
<polygon fill="#5a0bf9" stroke="#5a0bf9" points="260,-46.1043 264.5,-36.1043 260,-41.1043 260,-36.1043 260,-36.1043 260,-36.1043 260,-41.1043 255.5,-36.1044 260,-46.1043 260,-46.1043"/>
</g>
</g>
</svg>
