<?xml version="1.0" encoding="UTF-8" standalone="no"?>
<!DOCTYPE svg PUBLIC "-//W3C//DTD SVG 1.1//EN"
 "http://www.w3.org/Graphics/SVG/1.1/DTD/svg11.dtd">
<!-- Generated by graphviz version 2.36.0 (20140111.2315)
 -->
<!-- Title: models_diagram Pages: 1 -->
<svg width="1105pt" height="568pt"
 viewBox="0.00 0.00 1105.00 568.00" xmlns="http://www.w3.org/2000/svg" xmlns:xlink="http://www.w3.org/1999/xlink">
<g id="graph0" class="graph" transform="scale(1 1) rotate(0) translate(4 564)">
<title>models_diagram</title>
<polygon fill="none" stroke="none" points="-4,4 -4,-564 1101,-564 1101,4 -4,4"/>
<!-- _diagram_info -->
<g id="node1" class="node"><title>_diagram_info</title>
<text text-anchor="start" x="7.31226" y="-475.1" font-family="Times,serif" font-size="13.00">Models diagram</text>
<text text-anchor="start" x="7.31226" y="-462.1" font-family="Times,serif" font-size="13.00">Date: Jul 24 2016 &#45; 11:18</text>
<text text-anchor="start" x="7.31226" y="-449.1" font-family="Times,serif" font-size="13.00">Migration version: 20160330104124</text>
<text text-anchor="start" x="7.31226" y="-436.1" font-family="Times,serif" font-size="13.00">Generated by RailRoady 1.4.2</text>
<text text-anchor="start" x="7.31226" y="-423.1" font-family="Times,serif" font-size="13.00">http://railroady.prestonlee.com</text>
</g>
<!-- Activity -->
<g id="node2" class="node"><title>Activity</title>
<path fill="none" stroke="black" d="M236.774,-403C236.774,-403 365.226,-403 365.226,-403 371.226,-403 377.226,-409 377.226,-415 377.226,-415 377.226,-491 377.226,-491 377.226,-497 371.226,-503 365.226,-503 365.226,-503 236.774,-503 236.774,-503 230.774,-503 224.774,-497 224.774,-491 224.774,-491 224.774,-415 224.774,-415 224.774,-409 230.774,-403 236.774,-403"/>
<text text-anchor="middle" x="301" y="-487.8" font-family="Times,serif" font-size="14.00">Activity</text>
<polyline fill="none" stroke="black" points="224.774,-481 377.226,-481 "/>
<text text-anchor="start" x="232.774" y="-465.8" font-family="Times,serif" font-size="14.00">id :INTEGER</text>
<text text-anchor="start" x="232.774" y="-451.8" font-family="Times,serif" font-size="14.00">activityname_id :integer</text>
<text text-anchor="start" x="232.774" y="-437.8" font-family="Times,serif" font-size="14.00">date :date</text>
<text text-anchor="start" x="232.774" y="-423.8" font-family="Times,serif" font-size="14.00">created_at :datetime</text>
<text text-anchor="start" x="232.774" y="-409.8" font-family="Times,serif" font-size="14.00">updated_at :datetime</text>
</g>
<!-- Activityname -->
<g id="node3" class="node"><title>Activityname</title>
<path fill="none" stroke="black" d="M407.495,-410C407.495,-410 516.505,-410 516.505,-410 522.505,-410 528.505,-416 528.505,-422 528.505,-422 528.505,-484 528.505,-484 528.505,-490 522.505,-496 516.505,-496 516.505,-496 407.495,-496 407.495,-496 401.495,-496 395.495,-490 395.495,-484 395.495,-484 395.495,-422 395.495,-422 395.495,-416 401.495,-410 407.495,-410"/>
<text text-anchor="middle" x="462" y="-480.8" font-family="Times,serif" font-size="14.00">Activityname</text>
<polyline fill="none" stroke="black" points="395.495,-474 528.505,-474 "/>
<text text-anchor="start" x="403.495" y="-458.8" font-family="Times,serif" font-size="14.00">id :INTEGER</text>
<text text-anchor="start" x="403.495" y="-444.8" font-family="Times,serif" font-size="14.00">name :varchar(255)</text>
<text text-anchor="start" x="403.495" y="-430.8" font-family="Times,serif" font-size="14.00">created_at :datetime</text>
<text text-anchor="start" x="403.495" y="-416.8" font-family="Times,serif" font-size="14.00">updated_at :datetime</text>
</g>
<!-- Region -->
<g id="node4" class="node"><title>Region</title>
<path fill="none" stroke="black" d="M558.495,-410C558.495,-410 667.505,-410 667.505,-410 673.505,-410 679.505,-416 679.505,-422 679.505,-422 679.505,-484 679.505,-484 679.505,-490 673.505,-496 667.505,-496 667.505,-496 558.495,-496 558.495,-496 552.495,-496 546.495,-490 546.495,-484 546.495,-484 546.495,-422 546.495,-422 546.495,-416 552.495,-410 558.495,-410"/>
<text text-anchor="middle" x="613" y="-480.8" font-family="Times,serif" font-size="14.00">Region</text>
<polyline fill="none" stroke="black" points="546.495,-474 679.505,-474 "/>
<text text-anchor="start" x="554.495" y="-458.8" font-family="Times,serif" font-size="14.00">id :INTEGER</text>
<text text-anchor="start" x="554.495" y="-444.8" font-family="Times,serif" font-size="14.00">name :varchar(255)</text>
<text text-anchor="start" x="554.495" y="-430.8" font-family="Times,serif" font-size="14.00">created_at :datetime</text>
<text text-anchor="start" x="554.495" y="-416.8" font-family="Times,serif" font-size="14.00">updated_at :datetime</text>
</g>
<!-- StartingPoint -->
<g id="node6" class="node"><title>StartingPoint</title>
<path fill="none" stroke="black" d="M550.719,-195C550.719,-195 675.281,-195 675.281,-195 681.281,-195 687.281,-201 687.281,-207 687.281,-207 687.281,-297 687.281,-297 687.281,-303 681.281,-309 675.281,-309 675.281,-309 550.719,-309 550.719,-309 544.719,-309 538.719,-303 538.719,-297 538.719,-297 538.719,-207 538.719,-207 538.719,-201 544.719,-195 550.719,-195"/>
<text text-anchor="middle" x="613" y="-293.8" font-family="Times,serif" font-size="14.00">StartingPoint</text>
<polyline fill="none" stroke="black" points="538.719,-287 687.281,-287 "/>
<text text-anchor="start" x="546.719" y="-271.8" font-family="Times,serif" font-size="14.00">id :INTEGER</text>
<text text-anchor="start" x="546.719" y="-257.8" font-family="Times,serif" font-size="14.00">region_id :integer</text>
<text text-anchor="start" x="546.719" y="-243.8" font-family="Times,serif" font-size="14.00">name :varchar(255)</text>
<text text-anchor="start" x="546.719" y="-229.8" font-family="Times,serif" font-size="14.00">map_link :varchar(255)</text>
<text text-anchor="start" x="546.719" y="-215.8" font-family="Times,serif" font-size="14.00">created_at :datetime</text>
<text text-anchor="start" x="546.719" y="-201.8" font-family="Times,serif" font-size="14.00">updated_at :datetime</text>
</g>
<!-- Region&#45;&gt;StartingPoint -->
<g id="edge1" class="edge"><title>Region&#45;&gt;StartingPoint</title>
<path fill="none" stroke="#f31439" d="M613,-401.663C613,-376.653 613,-346.107 613,-319.224"/>
<ellipse fill="none" stroke="#f31439" cx="613" cy="-405.797" rx="4" ry="4"/>
<polygon fill="#f31439" stroke="#f31439" points="613,-319.12 617.5,-309.12 613,-314.12 613,-309.12 613,-309.12 613,-309.12 613,-314.12 608.5,-309.12 613,-319.12 613,-319.12"/>
</g>
<!-- Run -->
<g id="node5" class="node"><title>Run</title>
<path fill="none" stroke="black" d="M709.505,-368C709.505,-368 846.495,-368 846.495,-368 852.495,-368 858.495,-374 858.495,-380 858.495,-380 858.495,-526 858.495,-526 858.495,-532 852.495,-538 846.495,-538 846.495,-538 709.505,-538 709.505,-538 703.505,-538 697.505,-532 697.505,-526 697.505,-526 697.505,-380 697.505,-380 697.505,-374 703.505,-368 709.505,-368"/>
<text text-anchor="middle" x="778" y="-522.8" font-family="Times,serif" font-size="14.00">Run</text>
<polyline fill="none" stroke="black" points="697.505,-516 858.495,-516 "/>
<text text-anchor="start" x="705.505" y="-500.8" font-family="Times,serif" font-size="14.00">id :INTEGER</text>
<text text-anchor="start" x="705.505" y="-486.8" font-family="Times,serif" font-size="14.00">date :date</text>
<text text-anchor="start" x="705.505" y="-472.8" font-family="Times,serif" font-size="14.00">participants :varchar(255)</text>
<text text-anchor="start" x="705.505" y="-458.8" font-family="Times,serif" font-size="14.00">km :decimal(5,1)</text>
<text text-anchor="start" x="705.505" y="-444.8" font-family="Times,serif" font-size="14.00">duration :integer</text>
<text text-anchor="start" x="705.505" y="-430.8" font-family="Times,serif" font-size="14.00">max_pulse :integer</text>
<text text-anchor="start" x="705.505" y="-416.8" font-family="Times,serif" font-size="14.00">comments :text</text>
<text text-anchor="start" x="705.505" y="-402.8" font-family="Times,serif" font-size="14.00">map_link :varchar(255)</text>
<text text-anchor="start" x="705.505" y="-388.8" font-family="Times,serif" font-size="14.00">created_at :datetime</text>
<text text-anchor="start" x="705.505" y="-374.8" font-family="Times,serif" font-size="14.00">updated_at :datetime</text>
</g>
<!-- Track -->
<g id="node7" class="node"><title>Track</title>
<path fill="none" stroke="black" d="M546.04,-1C546.04,-1 679.96,-1 679.96,-1 685.96,-1 691.96,-7 691.96,-13 691.96,-13 691.96,-145 691.96,-145 691.96,-151 685.96,-157 679.96,-157 679.96,-157 546.04,-157 546.04,-157 540.04,-157 534.04,-151 534.04,-145 534.04,-145 534.04,-13 534.04,-13 534.04,-7 540.04,-1 546.04,-1"/>
<text text-anchor="middle" x="613" y="-141.8" font-family="Times,serif" font-size="14.00">Track</text>
<polyline fill="none" stroke="black" points="534.04,-135 691.96,-135 "/>
<text text-anchor="start" x="542.04" y="-119.8" font-family="Times,serif" font-size="14.00">id :INTEGER</text>
<text text-anchor="start" x="542.04" y="-105.8" font-family="Times,serif" font-size="14.00">starting_point_id :integer</text>
<text text-anchor="start" x="542.04" y="-91.8" font-family="Times,serif" font-size="14.00">name :varchar(255)</text>
<text text-anchor="start" x="542.04" y="-77.8" font-family="Times,serif" font-size="14.00">night_track :boolean</text>
<text text-anchor="start" x="542.04" y="-63.8" font-family="Times,serif" font-size="14.00">map_link :varchar(255)</text>
<text text-anchor="start" x="542.04" y="-49.8" font-family="Times,serif" font-size="14.00">km :decimal(5,1)</text>
<text text-anchor="start" x="542.04" y="-35.8" font-family="Times,serif" font-size="14.00">comments :text</text>
<text text-anchor="start" x="542.04" y="-21.8" font-family="Times,serif" font-size="14.00">created_at :datetime</text>
<text text-anchor="start" x="542.04" y="-7.8" font-family="Times,serif" font-size="14.00">updated_at :datetime</text>
</g>
<!-- StartingPoint&#45;&gt;Track -->
<g id="edge2" class="edge"><title>StartingPoint&#45;&gt;Track</title>
<path fill="none" stroke="#ae918e" d="M613,-186.282C613,-180.039 613,-173.639 613,-167.226"/>
<ellipse fill="none" stroke="#ae918e" cx="613" cy="-190.534" rx="4" ry="4"/>
<polygon fill="#ae918e" stroke="#ae918e" points="613,-167.159 617.5,-157.159 613,-162.159 613,-157.159 613,-157.159 613,-157.159 613,-162.159 608.5,-157.159 613,-167.159 613,-167.159"/>
</g>
<!-- User -->
<g id="node8" class="node"><title>User</title>
<path fill="none" stroke="black" d="M888.953,-347C888.953,-347 1085.05,-347 1085.05,-347 1091.05,-347 1097.05,-353 1097.05,-359 1097.05,-359 1097.05,-547 1097.05,-547 1097.05,-553 1091.05,-559 1085.05,-559 1085.05,-559 888.953,-559 888.953,-559 882.953,-559 876.953,-553 876.953,-547 876.953,-547 876.953,-359 876.953,-359 876.953,-353 882.953,-347 888.953,-347"/>
<text text-anchor="middle" x="987" y="-543.8" font-family="Times,serif" font-size="14.00">User</text>
<polyline fill="none" stroke="black" points="876.953,-537 1097.05,-537 "/>
<text text-anchor="start" x="884.953" y="-521.8" font-family="Times,serif" font-size="14.00">id :INTEGER</text>
<text text-anchor="start" x="884.953" y="-507.8" font-family="Times,serif" font-size="14.00">email :varchar(255)</text>
<text text-anchor="start" x="884.953" y="-493.8" font-family="Times,serif" font-size="14.00">encrypted_password :varchar(255)</text>
<text text-anchor="start" x="884.953" y="-479.8" font-family="Times,serif" font-size="14.00">reset_password_token :varchar(255)</text>
<text text-anchor="start" x="884.953" y="-465.8" font-family="Times,serif" font-size="14.00">reset_password_sent_at :datetime</text>
<text text-anchor="start" x="884.953" y="-451.8" font-family="Times,serif" font-size="14.00">remember_created_at :datetime</text>
<text text-anchor="start" x="884.953" y="-437.8" font-family="Times,serif" font-size="14.00">sign_in_count :integer</text>
<text text-anchor="start" x="884.953" y="-423.8" font-family="Times,serif" font-size="14.00">current_sign_in_at :datetime</text>
<text text-anchor="start" x="884.953" y="-409.8" font-family="Times,serif" font-size="14.00">last_sign_in_at :datetime</text>
<text text-anchor="start" x="884.953" y="-395.8" font-family="Times,serif" font-size="14.00">current_sign_in_ip :varchar(255)</text>
<text text-anchor="start" x="884.953" y="-381.8" font-family="Times,serif" font-size="14.00">last_sign_in_ip :varchar(255)</text>
<text text-anchor="start" x="884.953" y="-367.8" font-family="Times,serif" font-size="14.00">created_at :datetime</text>
<text text-anchor="start" x="884.953" y="-353.8" font-family="Times,serif" font-size="14.00">updated_at :datetime</text>
</g>
</g>
</svg>
