<?xml version="1.0" encoding="UTF-8" standalone="no"?>
<!DOCTYPE svg PUBLIC "-//W3C//DTD SVG 1.1//EN"
 "http://www.w3.org/Graphics/SVG/1.1/DTD/svg11.dtd">
<!-- Generated by graphviz version 2.36.0 (20140111.2315)
 -->
<!-- Title: models_diagram Pages: 1 -->
<svg width="679pt" height="226pt"
 viewBox="0.00 0.00 679.00 226.00" xmlns="http://www.w3.org/2000/svg" xmlns:xlink="http://www.w3.org/1999/xlink">
<g id="graph0" class="graph" transform="scale(1 1) rotate(0) translate(4 222)">
<title>models_diagram</title>
<polygon fill="none" stroke="none" points="-4,4 -4,-222 675,-222 675,4 -4,4"/>
<!-- _diagram_info -->
<g id="node1" class="node"><title>_diagram_info</title>
<text text-anchor="start" x="7.31226" y="-203.1" font-family="Times,serif" font-size="13.00">Models diagram</text>
<text text-anchor="start" x="7.31226" y="-190.1" font-family="Times,serif" font-size="13.00">Date: Jul 24 2016 &#45; 11:19</text>
<text text-anchor="start" x="7.31226" y="-177.1" font-family="Times,serif" font-size="13.00">Migration version: 20160330104124</text>
<text text-anchor="start" x="7.31226" y="-164.1" font-family="Times,serif" font-size="13.00">Generated by RailRoady 1.4.2</text>
<text text-anchor="start" x="7.31226" y="-151.1" font-family="Times,serif" font-size="13.00">http://railroady.prestonlee.com</text>
</g>
<!-- Activity -->
<g id="node2" class="node"><title>Activity</title>
<ellipse fill="none" stroke="black" cx="264" cy="-181" rx="39.135" ry="18"/>
<text text-anchor="middle" x="264" y="-176.8" font-family="Times,serif" font-size="14.00">Activity</text>
</g>
<!-- Activityname -->
<g id="node3" class="node"><title>Activityname</title>
<ellipse fill="none" stroke="black" cx="379" cy="-181" rx="58.3615" ry="18"/>
<text text-anchor="middle" x="379" y="-176.8" font-family="Times,serif" font-size="14.00">Activityname</text>
</g>
<!-- Region -->
<g id="node4" class="node"><title>Region</title>
<ellipse fill="none" stroke="black" cx="491" cy="-181" rx="35.4783" ry="18"/>
<text text-anchor="middle" x="491" y="-176.8" font-family="Times,serif" font-size="14.00">Region</text>
</g>
<!-- StartingPoint -->
<g id="node6" class="node"><title>StartingPoint</title>
<ellipse fill="none" stroke="black" cx="491" cy="-90" rx="56.1805" ry="18"/>
<text text-anchor="middle" x="491" y="-85.8" font-family="Times,serif" font-size="14.00">StartingPoint</text>
</g>
<!-- Region&#45;&gt;StartingPoint -->
<g id="edge1" class="edge"><title>Region&#45;&gt;StartingPoint</title>
<path fill="none" stroke="#49b245" d="M491,-154.546C491,-143.148 491,-129.696 491,-118.11"/>
<ellipse fill="none" stroke="#49b245" cx="491" cy="-158.84" rx="4" ry="4"/>
<polygon fill="#49b245" stroke="#49b245" points="491,-118.107 495.5,-108.107 491,-113.107 491,-108.107 491,-108.107 491,-108.107 491,-113.107 486.5,-108.107 491,-118.107 491,-118.107"/>
</g>
<!-- Run -->
<g id="node5" class="node"><title>Run</title>
<ellipse fill="none" stroke="black" cx="572" cy="-181" rx="27" ry="18"/>
<text text-anchor="middle" x="572" y="-176.8" font-family="Times,serif" font-size="14.00">Run</text>
</g>
<!-- Track -->
<g id="node7" class="node"><title>Track</title>
<ellipse fill="none" stroke="black" cx="491" cy="-18" rx="30.1295" ry="18"/>
<text text-anchor="middle" x="491" y="-13.8" font-family="Times,serif" font-size="14.00">Track</text>
</g>
<!-- StartingPoint&#45;&gt;Track -->
<g id="edge2" class="edge"><title>StartingPoint&#45;&gt;Track</title>
<path fill="none" stroke="#06c0b8" d="M491,-63.6398C491,-58.0629 491,-52.1319 491,-46.4761"/>
<ellipse fill="none" stroke="#06c0b8" cx="491" cy="-67.6966" rx="4" ry="4"/>
<polygon fill="#06c0b8" stroke="#06c0b8" points="491,-46.1043 495.5,-36.1043 491,-41.1043 491,-36.1043 491,-36.1043 491,-36.1043 491,-41.1043 486.5,-36.1044 491,-46.1043 491,-46.1043"/>
</g>
<!-- User -->
<g id="node8" class="node"><title>User</title>
<ellipse fill="none" stroke="black" cx="644" cy="-181" rx="27" ry="18"/>
<text text-anchor="middle" x="644" y="-176.8" font-family="Times,serif" font-size="14.00">User</text>
</g>
</g>
</svg>
